# xmcd
#
# Track frame offsets: 
#        150
#        20708
#        33610
#        57944
#        80417
#        98552
#        116626
#        134342
#        156589
#        170517
#
# Disc length: 2486 seconds
#
# Revision: 0
# Processed by: cddbd v1.5.2PL0 Copyright (c) Steve Scherf et al.
# Submitted via: ExactAudioCopy v0.99pb3
#
DISCID=8509b40a
DTITLE=Willie Sugarcapps - Willie Sugarcapps [GateCD]
DYEAR=2013
DGENRE=Alt. Rock
TTITLE0=Willie Sugarcapps
TTITLE1=Mr. Lee
TTITLE2=Oh, Colorado
TTITLE3=Magdalena
TTITLE4=Mud Bottom
TTITLE5=Energy
TTITLE6=Gypsy Train
TTITLE7=Poison
TTITLE8=Trouble
TTITLE9=Up to the Sky
EXTD=
EXTT0=
EXTT1=
EXTT2=
EXTT3=
EXTT4=
EXTT5=
EXTT6=
EXTT7=
EXTT8=
EXTT9=
PLAYORDER=
